<mxfile host="app.diagrams.net" modified="2023-07-31T07:43:14.470Z" agent="Mozilla/5.0 (Windows NT 10.0; Win64; x64) AppleWebKit/537.36 (KHTML, like Gecko) Chrome/114.0.0.0 Safari/537.36 Edg/114.0.1823.79" version="21.1.2" etag="KdBVe4QfzbRfPh6X-rsl" type="github">
  <diagram name="페이지-1" id="Dy4xhRcMGpliKxKRtsvx">
    <mxGraphModel>
      <root>
        <mxCell id="0" />
        <mxCell id="1" parent="0" />
      </root>
    </mxGraphModel>
  </diagram>
</mxfile>
